<svg width="72" height="68" viewBox="0 0 72 68" fill="none" xmlns="http://www.w3.org/2000/svg">
<g filter="url(#filter0_d_28_87)">
<rect x="10" y="6" width="52" height="48" rx="12" fill="white"/>
</g>
<path d="M52 27.4548L50.3347 19.7428C49.9804 18.11 49.076 16.6486 47.7728 15.6031C46.4695 14.5577 44.8467 13.9918 43.176 14.0001H28.824C27.1533 13.9918 25.5305 14.5577 24.2272 15.6031C22.924 16.6486 22.0196 18.11 21.6653 19.7428L20.048 27.0214L20 28.7281C20.006 30.0659 20.4774 31.3599 21.3333 32.3881V38.6668C21.3355 40.611 22.1087 42.4751 23.4836 43.8499C24.8584 45.2247 26.7224 45.998 28.6667 46.0001H43.3333C45.2776 45.998 47.1416 45.2247 48.5164 43.8499C49.8913 42.4751 50.6646 40.611 50.6667 38.6668V32.3881C51.5226 31.3599 51.994 30.0659 52 28.7281V27.4548ZM24 27.6748L25.5693 20.6081C25.7343 19.868 26.1467 19.2063 26.7384 18.7322C27.3301 18.2581 28.0658 17.9998 28.824 18.0001H29.3333V20.0001C29.3333 20.5305 29.544 21.0392 29.9191 21.4143C30.2942 21.7894 30.8029 22.0001 31.3333 22.0001C31.8638 22.0001 32.3725 21.7894 32.7475 21.4143C33.1226 21.0392 33.3333 20.5305 33.3333 20.0001V18.0001H38.6667V20.0001C38.6667 20.5305 38.8774 21.0392 39.2525 21.4143C39.6275 21.7894 40.1362 22.0001 40.6667 22.0001C41.1971 22.0001 41.7058 21.7894 42.0809 21.4143C42.456 21.0392 42.6667 20.5305 42.6667 20.0001V18.0001H43.176C43.9346 18 44.6706 18.2586 45.2623 18.7332C45.8541 19.2079 46.2662 19.8702 46.4307 20.6108L48 27.6748V28.7281C47.9872 29.2017 47.79 29.6517 47.4505 29.9821C47.1109 30.3126 46.6558 30.4975 46.182 30.4975C45.7082 30.4975 45.2531 30.3126 44.9135 29.9821C44.574 29.6517 44.3768 29.2017 44.364 28.7281C44.3728 28.2928 44.2946 27.8601 44.1341 27.4553C43.9736 27.0505 43.7339 26.6819 43.4292 26.3709C43.1244 26.0599 42.7607 25.8129 42.3592 25.6442C41.9578 25.4756 41.5268 25.3887 41.0913 25.3887C40.6559 25.3887 40.2249 25.4756 39.8234 25.6442C39.422 25.8129 39.0583 26.0599 38.7535 26.3709C38.4487 26.6819 38.2091 27.0505 38.0486 27.4553C37.888 27.8601 37.8099 28.2928 37.8187 28.7281C37.8187 29.2104 37.6271 29.673 37.286 30.0141C36.9449 30.3551 36.4823 30.5468 36 30.5468C35.5177 30.5468 35.0551 30.3551 34.714 30.0141C34.3729 29.673 34.1813 29.2104 34.1813 28.7281C34.1901 28.2928 34.112 27.8601 33.9514 27.4553C33.7909 27.0505 33.5513 26.6819 33.2465 26.3709C32.9417 26.0599 32.578 25.8129 32.1766 25.6442C31.7751 25.4756 31.3441 25.3887 30.9087 25.3887C30.4732 25.3887 30.0422 25.4756 29.6408 25.6442C29.2393 25.8129 28.8756 26.0599 28.5708 26.3709C28.2661 26.6819 28.0264 27.0505 27.8659 27.4553C27.7054 27.8601 27.6272 28.2928 27.636 28.7281C27.6232 29.2017 27.426 29.6517 27.0865 29.9821C26.7469 30.3126 26.2918 30.4975 25.818 30.4975C25.3442 30.4975 24.8891 30.3126 24.5495 29.9821C24.21 29.6517 24.0128 29.2017 24 28.7281V27.6748ZM43.3333 42.0001H28.6667C27.7826 42.0001 26.9348 41.6489 26.3096 41.0238C25.6845 40.3987 25.3333 39.5508 25.3333 38.6668V34.4961C25.496 34.5108 25.652 34.5454 25.8187 34.5454C26.8581 34.5447 27.8783 34.2657 28.7735 33.7374C29.6687 33.2092 30.4062 32.4509 30.9093 31.5414C31.412 32.4513 32.1494 33.2098 33.0447 33.738C33.94 34.2662 34.9605 34.5448 36 34.5448C37.0395 34.5448 38.06 34.2662 38.9553 33.738C39.8506 33.2098 40.588 32.4513 41.0907 31.5414C41.5938 32.4509 42.3313 33.2092 43.2265 33.7374C44.1217 34.2657 45.1419 34.5447 46.1813 34.5454C46.348 34.5454 46.504 34.5108 46.6667 34.4961V38.6668C46.6667 39.1045 46.5804 39.538 46.4129 39.9424C46.2454 40.3468 45.9999 40.7143 45.6904 41.0238C45.3808 41.3333 45.0134 41.5788 44.6089 41.7464C44.2045 41.9139 43.7711 42.0001 43.3333 42.0001Z" fill="#6379D2"/>
<defs>
<filter id="filter0_d_28_87" x="0" y="0" width="72" height="68" filterUnits="userSpaceOnUse" color-interpolation-filters="sRGB">
<feFlood flood-opacity="0" result="BackgroundImageFix"/>
<feColorMatrix in="SourceAlpha" type="matrix" values="0 0 0 0 0 0 0 0 0 0 0 0 0 0 0 0 0 0 127 0" result="hardAlpha"/>
<feOffset dy="4"/>
<feGaussianBlur stdDeviation="5"/>
<feComposite in2="hardAlpha" operator="out"/>
<feColorMatrix type="matrix" values="0 0 0 0 0 0 0 0 0 0 0 0 0 0 0 0 0 0 0.25 0"/>
<feBlend mode="normal" in2="BackgroundImageFix" result="effect1_dropShadow_28_87"/>
<feBlend mode="normal" in="SourceGraphic" in2="effect1_dropShadow_28_87" result="shape"/>
</filter>
</defs>
</svg>
