<svg width="32" height="28" viewBox="0 0 32 28" fill="none" xmlns="http://www.w3.org/2000/svg">
<g clip-path="url(#clip0_28_47)">
<path d="M16 14C17.5823 14 19.129 13.5895 20.4446 12.8203C21.7602 12.0511 22.7855 10.9579 23.391 9.67879C23.9965 8.3997 24.155 6.99224 23.8463 5.63437C23.5376 4.2765 22.7757 3.02922 21.6569 2.05026C20.538 1.07129 19.1126 0.404603 17.5607 0.134506C16.0089 -0.13559 14.4003 0.003033 12.9385 0.532846C11.4767 1.06266 10.2273 1.95987 9.34824 3.11101C8.46919 4.26216 8 5.61553 8 7C8.00212 8.85595 8.84565 10.6354 10.3455 11.9477C11.8453 13.2601 13.8789 13.9981 16 14ZM16 2.33334C17.0548 2.33334 18.086 2.60703 18.963 3.11981C19.8401 3.63259 20.5237 4.36143 20.9274 5.21415C21.331 6.06687 21.4366 7.00518 21.2309 7.91042C21.0251 8.81567 20.5171 9.64719 19.7712 10.2998C19.0254 10.9525 18.075 11.3969 17.0405 11.577C16.0059 11.7571 14.9336 11.6646 13.959 11.3114C12.9845 10.9582 12.1515 10.3601 11.5655 9.59266C10.9795 8.82523 10.6667 7.92298 10.6667 7C10.6667 5.76233 11.2286 4.57534 12.2288 3.70017C13.229 2.825 14.5855 2.33334 16 2.33334Z" fill="black"/>
<path d="M16 16.3333C12.8185 16.3364 9.76829 17.4436 7.51862 19.4121C5.26894 21.3806 4.00353 24.0495 4 26.8333C4 27.1427 4.14048 27.4395 4.39052 27.6583C4.64057 27.8771 4.97971 28 5.33333 28C5.68696 28 6.02609 27.8771 6.27614 27.6583C6.52619 27.4395 6.66667 27.1427 6.66667 26.8333C6.66667 24.6674 7.65 22.5902 9.40034 21.0586C11.1507 19.5271 13.5246 18.6666 16 18.6666C18.4754 18.6666 20.8493 19.5271 22.5997 21.0586C24.35 22.5902 25.3333 24.6674 25.3333 26.8333C25.3333 27.1427 25.4738 27.4395 25.7239 27.6583C25.9739 27.8771 26.313 28 26.6667 28C27.0203 28 27.3594 27.8771 27.6095 27.6583C27.8595 27.4395 28 27.1427 28 26.8333C27.9965 24.0495 26.7311 21.3806 24.4814 19.4121C22.2317 17.4436 19.1815 16.3364 16 16.3333Z" fill="black"/>
</g>
<defs>
<clipPath id="clip0_28_47">
<rect width="32" height="28" fill="white"/>
</clipPath>
</defs>
</svg>
